<svg xmlns="http://www.w3.org/2000/svg"  viewBox="0 0 50 50" width="50px" height="50px"><path d="M 14 8 C 8.484375 8 4 12.484375 4 18 C 4 18.992188 4.148438 19.972656 4.441406 20.925781 C 2.273438 22.625 1 25.21875 1 28 C 1 33.265625 5.585938 37.515625 10.921875 36.953125 C 12.417969 40 15.570313 42 19 42 C 22.210938 42 25.160156 40.277344 26.765625 37.542969 C 27.644531 37.847656 28.5625 38 29.5 38 C 32.496094 38 35.214844 36.457031 36.75 33.921875 C 37.179688 33.976563 37.589844 34 38 34 C 44.066406 34 49 29.066406 49 23 C 49 16.933594 44.066406 12 38 12 C 36.777344 12 35.582031 12.199219 34.4375 12.59375 C 32.851563 10.359375 30.269531 9 27.5 9 C 25.234375 9 23.125 9.875 21.546875 11.441406 C 19.65625 9.265625 16.921875 8 14 8 Z M 16.113281 19.800781 L 16.824219 19.800781 C 16.976563 19.800781 17.097656 19.925781 17.097656 20.082031 L 17.097656 25.917969 C 17.097656 26.078125 16.976563 26.199219 16.824219 26.199219 L 16.113281 26.199219 C 15.960938 26.199219 15.839844 26.078125 15.839844 25.917969 L 15.839844 20.082031 C 15.839844 19.925781 15.960938 19.800781 16.113281 19.800781 Z M 28.578125 19.914063 C 28.722656 19.914063 28.847656 19.921875 28.957031 19.941406 C 29.0625 19.960938 29.144531 19.980469 29.234375 20.007813 L 29.242188 20.011719 C 29.335938 20.050781 29.378906 20.136719 29.34375 20.230469 L 29.140625 20.792969 C 29.113281 20.859375 29.058594 20.941406 28.902344 20.890625 C 28.878906 20.886719 28.84375 20.875 28.777344 20.859375 C 28.742188 20.855469 28.664063 20.84375 28.578125 20.84375 C 28.480469 20.84375 28.394531 20.855469 28.320313 20.878906 C 28.253906 20.902344 28.191406 20.941406 28.136719 20.996094 C 28.058594 21.074219 28.003906 21.15625 27.972656 21.238281 C 27.921875 21.382813 27.878906 21.605469 27.839844 21.894531 L 28.574219 21.894531 C 28.636719 21.894531 28.6875 21.914063 28.71875 21.953125 C 28.742188 21.976563 28.769531 22.023438 28.761719 22.09375 L 28.65625 22.652344 C 28.640625 22.777344 28.542969 22.8125 28.46875 22.8125 L 27.679688 22.8125 L 27.09375 26.128906 C 27.027344 26.492188 26.945313 26.800781 26.855469 27.046875 C 26.75 27.320313 26.640625 27.5 26.488281 27.671875 C 26.328125 27.847656 26.148438 27.972656 25.953125 28.042969 C 25.757813 28.113281 25.527344 28.148438 25.265625 28.148438 C 25.136719 28.148438 25.007813 28.144531 24.855469 28.109375 C 24.742188 28.082031 24.679688 28.066406 24.597656 28.035156 C 24.519531 28.003906 24.457031 27.910156 24.496094 27.800781 C 24.515625 27.75 24.675781 27.316406 24.695313 27.257813 C 24.738281 27.152344 24.839844 27.125 24.921875 27.15625 C 24.96875 27.175781 24.996094 27.1875 25.046875 27.199219 C 25.105469 27.207031 25.183594 27.21875 25.242188 27.21875 C 25.347656 27.21875 25.445313 27.207031 25.527344 27.179688 C 25.609375 27.152344 25.660156 27.105469 25.71875 27.027344 C 25.78125 26.949219 25.832031 26.839844 25.890625 26.671875 C 25.949219 26.515625 26 26.300781 26.046875 26.03125 L 26.625 22.8125 L 26.15625 22.8125 C 26.089844 22.8125 26.039063 22.792969 26.003906 22.753906 C 25.984375 22.726563 25.960938 22.683594 25.96875 22.609375 L 26.066406 22.054688 C 26.09375 21.933594 26.203125 21.898438 26.261719 21.894531 L 26.777344 21.894531 L 26.8125 21.613281 C 26.910156 21.058594 27.097656 20.632813 27.375 20.347656 C 27.664063 20.0625 28.066406 19.914063 28.578125 19.914063 Z M 16.824219 20 C 16.867188 20 16.898438 20.035156 16.898438 20.082031 C 16.898438 20.035156 16.867188 20 16.824219 20 Z M 9.460938 21.796875 L 9.554688 21.800781 L 9.558594 21.800781 C 10.070313 21.800781 10.601563 21.929688 11.007813 22.160156 C 11.136719 22.230469 11.195313 22.375 11.140625 22.507813 C 11.125 22.550781 10.964844 22.941406 10.949219 22.984375 C 10.90625 23.089844 10.8125 23.15625 10.703125 23.15625 C 10.625 23.15625 10.5625 23.121094 10.546875 23.113281 C 10.246094 22.960938 9.789063 22.855469 9.4375 22.855469 C 9.203125 22.855469 9.039063 22.945313 9.039063 23.089844 C 9.039063 23.226563 9.441406 23.347656 9.765625 23.441406 L 9.847656 23.46875 C 10.34375 23.613281 11.273438 23.882813 11.273438 24.792969 C 11.273438 25.648438 10.59375 26.199219 9.542969 26.199219 C 8.976563 26.199219 8.527344 26.101563 8.074219 25.878906 L 8.023438 25.855469 C 7.945313 25.8125 7.871094 25.773438 7.769531 25.703125 C 7.675781 25.625 7.648438 25.507813 7.699219 25.390625 L 7.882813 24.917969 C 7.925781 24.800781 8.023438 24.730469 8.140625 24.730469 C 8.203125 24.730469 8.261719 24.75 8.292969 24.769531 L 8.359375 24.8125 L 8.453125 24.859375 C 8.789063 25.058594 9.164063 25.15625 9.566406 25.15625 C 9.84375 25.15625 10.03125 25.046875 10.03125 24.871094 C 10.03125 24.726563 9.660156 24.625 9.328125 24.53125 L 9.234375 24.503906 C 8.730469 24.371094 7.796875 24.125 7.796875 23.171875 C 7.796875 22.363281 8.480469 21.796875 9.460938 21.796875 Z M 23.917969 21.796875 L 23.921875 21.796875 C 24.433594 21.796875 24.960938 21.929688 25.371094 22.15625 C 25.5 22.230469 25.554688 22.375 25.503906 22.503906 C 25.488281 22.550781 25.328125 22.9375 25.3125 22.984375 C 25.265625 23.085938 25.171875 23.152344 25.0625 23.152344 C 24.984375 23.152344 24.921875 23.121094 24.90625 23.113281 C 24.605469 22.960938 24.152344 22.855469 23.800781 22.855469 C 23.5625 22.855469 23.398438 22.945313 23.398438 23.089844 C 23.398438 23.226563 23.804688 23.34375 24.125 23.441406 L 24.207031 23.46875 C 24.703125 23.613281 25.636719 23.882813 25.636719 24.792969 C 25.636719 25.648438 24.957031 26.199219 23.90625 26.199219 C 23.339844 26.199219 22.886719 26.101563 22.4375 25.878906 L 22.382813 25.855469 C 22.304688 25.8125 22.230469 25.773438 22.128906 25.703125 C 22.035156 25.625 22.011719 25.507813 22.0625 25.390625 L 22.246094 24.921875 C 22.285156 24.804688 22.382813 24.734375 22.503906 24.734375 C 22.558594 24.734375 22.617188 24.746094 22.6875 24.789063 C 22.722656 24.8125 22.757813 24.832031 22.8125 24.863281 C 23.152344 25.058594 23.527344 25.15625 23.929688 25.15625 C 24.207031 25.15625 24.394531 25.050781 24.394531 24.875 C 24.394531 24.730469 24.019531 24.625 23.691406 24.53125 L 23.59375 24.503906 C 23.09375 24.371094 22.15625 24.125 22.15625 23.171875 C 22.15625 22.363281 22.84375 21.800781 23.824219 21.800781 Z M 37.921875 21.800781 C 38.152344 21.800781 38.363281 21.8125 38.542969 21.839844 C 38.734375 21.863281 38.992188 21.929688 39.109375 21.972656 C 39.183594 22 39.242188 22.050781 39.269531 22.113281 L 39.308594 22.238281 L 39.277344 22.316406 C 39.222656 22.460938 39.183594 22.566406 39.136719 22.683594 L 39.082031 22.816406 C 39.039063 22.929688 38.941406 23 38.828125 23 L 38.777344 22.996094 L 38.75 22.984375 C 38.503906 22.914063 38.269531 22.886719 37.972656 22.886719 C 37.644531 22.886719 37.410156 22.976563 37.253906 23.167969 C 37.082031 23.378906 36.996094 23.652344 36.996094 24.003906 C 36.996094 24.386719 37.089844 24.683594 37.273438 24.859375 C 37.453125 25.027344 37.707031 25.113281 38.035156 25.113281 C 38.179688 25.113281 38.316406 25.105469 38.4375 25.089844 C 38.539063 25.074219 38.636719 25.046875 38.765625 25 L 38.828125 24.984375 L 38.863281 24.984375 C 38.984375 24.984375 39.082031 25.054688 39.121094 25.160156 L 39.3125 25.652344 C 39.375 25.808594 39.289063 25.945313 39.160156 26.003906 C 38.824219 26.125 38.382813 26.199219 37.980469 26.199219 C 37.238281 26.199219 36.667969 25.996094 36.28125 25.59375 C 35.894531 25.199219 35.699219 24.664063 35.699219 24.003906 C 35.699219 23.699219 35.746094 23.410156 35.839844 23.152344 C 35.933594 22.878906 36.078125 22.644531 36.265625 22.445313 C 36.457031 22.246094 36.695313 22.085938 36.96875 21.972656 C 37.246094 21.859375 37.566406 21.800781 37.921875 21.800781 Z M 13.566406 21.898438 C 14.125 21.898438 14.558594 22.023438 14.855469 22.265625 C 15.160156 22.511719 15.316406 22.90625 15.316406 23.433594 L 15.316406 25.691406 C 15.324219 25.757813 15.28125 25.847656 15.183594 25.871094 C 15.183594 25.871094 15.082031 25.894531 14.992188 25.914063 C 14.90625 25.933594 14.585938 25.992188 14.316406 26.035156 C 14.042969 26.078125 13.765625 26.097656 13.488281 26.097656 C 13.222656 26.097656 12.980469 26.078125 12.765625 26.03125 C 12.539063 25.984375 12.34375 25.90625 12.1875 25.796875 C 12.023438 25.691406 11.894531 25.546875 11.804688 25.375 C 11.714844 25.207031 11.671875 25 11.671875 24.765625 C 11.671875 24.53125 11.722656 24.324219 11.828125 24.144531 C 11.929688 23.96875 12.070313 23.820313 12.246094 23.703125 C 12.417969 23.589844 12.613281 23.503906 12.832031 23.453125 C 13.046875 23.398438 13.277344 23.371094 13.515625 23.371094 C 13.6875 23.371094 13.828125 23.375 13.9375 23.382813 C 13.9375 23.382813 14.085938 23.394531 14.269531 23.417969 C 14.265625 23.105469 14.199219 22.992188 14.09375 22.917969 C 13.960938 22.824219 13.757813 22.777344 13.488281 22.777344 L 13.484375 22.777344 C 13.433594 22.777344 12.839844 22.78125 12.375 23.015625 C 12.347656 23.035156 12.316406 23.042969 12.316406 23.042969 C 12.242188 23.066406 12.140625 23.042969 12.105469 22.941406 L 11.917969 22.472656 C 11.871094 22.367188 11.929688 22.28125 11.984375 22.25 C 12.226563 22.074219 12.8125 21.96875 12.839844 21.964844 C 13.046875 21.925781 13.375 21.898438 13.566406 21.898438 Z M 19.84375 21.902344 C 20.117188 21.902344 20.398438 21.953125 20.644531 22.050781 C 20.824219 22.121094 21 22.246094 21.183594 22.433594 C 21.3125 22.5625 21.484375 22.816406 21.550781 23.050781 C 21.691406 23.515625 21.664063 23.9375 21.636719 24.144531 C 21.621094 24.257813 21.53125 24.308594 21.453125 24.3125 L 18.894531 24.308594 C 18.921875 24.605469 19.011719 24.8125 19.167969 24.957031 C 19.355469 25.128906 19.644531 25.222656 20.011719 25.222656 L 20.023438 25.222656 C 20.574219 25.222656 20.832031 25.132813 21.019531 25.0625 L 21.074219 25.046875 C 21.152344 25.019531 21.261719 25.042969 21.300781 25.144531 L 21.476563 25.597656 C 21.523438 25.703125 21.496094 25.796875 21.40625 25.84375 C 21.21875 25.941406 20.792969 26.097656 20.015625 26.101563 L 20.003906 26.101563 C 19.628906 26.101563 19.296875 26.050781 19.015625 25.949219 C 18.730469 25.847656 18.492188 25.699219 18.308594 25.515625 C 18.121094 25.324219 17.984375 25.101563 17.898438 24.847656 C 17.8125 24.601563 17.769531 24.324219 17.769531 24.027344 C 17.769531 23.734375 17.8125 23.457031 17.890625 23.203125 C 17.972656 22.949219 18.101563 22.722656 18.273438 22.527344 C 18.445313 22.335938 18.664063 22.179688 18.921875 22.066406 C 19.179688 21.957031 19.488281 21.902344 19.84375 21.902344 Z M 30.65625 21.902344 C 30.988281 21.902344 31.289063 21.957031 31.542969 22.066406 C 31.796875 22.175781 32.011719 22.328125 32.183594 22.515625 C 32.351563 22.707031 32.480469 22.933594 32.5625 23.1875 C 32.640625 23.441406 32.683594 23.714844 32.683594 24.003906 C 32.683594 24.292969 32.640625 24.566406 32.5625 24.816406 C 32.480469 25.074219 32.351563 25.300781 32.183594 25.488281 C 32.007813 25.679688 31.792969 25.832031 31.542969 25.9375 C 31.285156 26.046875 30.988281 26.097656 30.65625 26.097656 C 30.324219 26.097656 30.027344 26.046875 29.773438 25.9375 C 29.519531 25.832031 29.304688 25.679688 29.132813 25.488281 C 28.960938 25.300781 28.835938 25.074219 28.753906 24.816406 C 28.675781 24.566406 28.632813 24.292969 28.632813 24.003906 C 28.632813 23.714844 28.675781 23.441406 28.753906 23.1875 C 28.835938 22.933594 28.960938 22.707031 29.132813 22.515625 C 29.300781 22.328125 29.515625 22.175781 29.769531 22.066406 C 30.027344 21.957031 30.324219 21.902344 30.65625 21.902344 Z M 41.355469 21.902344 C 41.628906 21.902344 41.90625 21.953125 42.15625 22.050781 C 42.332031 22.125 42.507813 22.246094 42.691406 22.433594 C 42.824219 22.5625 42.992188 22.816406 43.0625 23.050781 C 43.210938 23.542969 43.167969 23.984375 43.140625 24.152344 C 43.128906 24.253906 43.046875 24.3125 42.96875 24.3125 L 40.40625 24.308594 C 40.433594 24.605469 40.519531 24.8125 40.675781 24.953125 C 40.863281 25.128906 41.15625 25.21875 41.519531 25.21875 L 41.53125 25.21875 C 42.085938 25.21875 42.34375 25.128906 42.53125 25.0625 L 42.585938 25.046875 C 42.664063 25.019531 42.769531 25.042969 42.8125 25.144531 L 42.984375 25.597656 C 43.03125 25.699219 43.007813 25.792969 42.917969 25.84375 C 42.730469 25.9375 42.304688 26.097656 41.527344 26.097656 L 41.515625 26.097656 C 41.136719 26.097656 40.804688 26.050781 40.527344 25.949219 C 40.242188 25.847656 40.003906 25.699219 39.816406 25.515625 C 39.628906 25.324219 39.496094 25.101563 39.40625 24.84375 C 39.324219 24.601563 39.28125 24.324219 39.28125 24.027344 C 39.28125 23.734375 39.324219 23.457031 39.402344 23.203125 C 39.484375 22.949219 39.613281 22.71875 39.78125 22.527344 C 39.957031 22.332031 40.175781 22.179688 40.433594 22.066406 C 40.6875 21.957031 40.996094 21.902344 41.355469 21.902344 Z M 35.28125 21.902344 C 35.460938 21.914063 35.695313 21.960938 35.753906 21.984375 C 35.832031 22.007813 35.890625 22.09375 35.859375 22.199219 L 35.859375 22.203125 C 35.832031 22.269531 35.703125 22.625 35.65625 22.738281 C 35.601563 22.871094 35.492188 22.875 35.453125 22.875 C 35.4375 22.871094 35.296875 22.839844 35.171875 22.839844 C 35.058594 22.839844 34.9375 22.855469 34.84375 22.882813 C 34.734375 22.914063 34.636719 22.972656 34.550781 23.050781 C 34.464844 23.128906 34.398438 23.242188 34.34375 23.386719 C 34.292969 23.527344 34.261719 23.761719 34.261719 24.019531 L 34.261719 25.921875 C 34.261719 26.019531 34.179688 26.097656 34.078125 26.097656 L 33.378906 26.097656 C 33.28125 26.097656 33.199219 26.019531 33.199219 25.921875 L 33.199219 22.113281 C 33.199219 22.015625 33.277344 21.9375 33.375 21.9375 L 34.058594 21.9375 C 34.15625 21.9375 34.234375 22.015625 34.234375 22.113281 L 34.234375 22.195313 C 34.328125 22.128906 34.433594 22.066406 34.546875 22.015625 C 34.714844 21.945313 34.914063 21.882813 35.28125 21.902344 Z M 9.558594 22 C 9.8125 22 10.0625 22.035156 10.292969 22.09375 C 10.0625 22.035156 9.8125 22 9.558594 22 Z M 19.78125 22.753906 C 19.472656 22.753906 19.25 22.859375 19.097656 23.074219 C 19.019531 23.183594 18.960938 23.324219 18.921875 23.496094 L 20.59375 23.5 C 20.566406 23.3125 20.519531 23.175781 20.445313 23.074219 C 20.289063 22.851563 20.082031 22.753906 19.78125 22.753906 Z M 41.289063 22.753906 C 40.980469 22.753906 40.757813 22.859375 40.609375 23.074219 C 40.527344 23.183594 40.46875 23.324219 40.433594 23.496094 L 42.101563 23.5 C 42.078125 23.316406 42.027344 23.175781 41.953125 23.074219 C 41.796875 22.851563 41.589844 22.753906 41.289063 22.753906 Z M 30.65625 22.769531 C 30.339844 22.769531 30.121094 22.867188 29.972656 23.074219 C 29.824219 23.289063 29.746094 23.601563 29.746094 24.003906 C 29.746094 24.40625 29.824219 24.722656 29.976563 24.9375 C 30.121094 25.148438 30.339844 25.246094 30.65625 25.246094 C 30.976563 25.246094 31.195313 25.148438 31.34375 24.9375 C 31.5 24.71875 31.578125 24.40625 31.578125 24.003906 C 31.578125 23.601563 31.5 23.289063 31.34375 23.074219 C 31.195313 22.867188 30.976563 22.769531 30.65625 22.769531 Z M 38.804688 22.796875 C 38.804688 22.796875 38.8125 22.796875 38.828125 22.796875 C 38.816406 22.796875 38.804688 22.796875 38.804688 22.796875 Z M 10.765625 22.90625 C 10.746094 22.945313 10.71875 22.953125 10.691406 22.953125 C 10.695313 22.953125 10.695313 22.953125 10.703125 22.953125 C 10.726563 22.953125 10.75 22.941406 10.765625 22.90625 Z M 25.125 22.90625 C 25.109375 22.945313 25.082031 22.953125 25.054688 22.953125 C 25.058594 22.953125 25.058594 22.953125 25.0625 22.953125 C 25.085938 22.953125 25.113281 22.941406 25.125 22.90625 Z M 22.5 23.691406 C 22.589844 23.828125 22.71875 23.933594 22.863281 24.019531 C 22.71875 23.933594 22.589844 23.828125 22.5 23.691406 Z M 13.613281 24.191406 C 13.25 24.191406 13.042969 24.285156 12.96875 24.328125 L 12.925781 24.355469 C 12.796875 24.441406 12.734375 24.566406 12.734375 24.75 C 12.734375 24.867188 12.757813 24.957031 12.796875 25.015625 C 12.828125 25.058594 12.835938 25.070313 12.929688 25.136719 L 12.933594 25.140625 C 12.949219 25.152344 13.167969 25.285156 13.644531 25.261719 C 13.90625 25.246094 14.148438 25.210938 14.269531 25.1875 L 14.269531 24.234375 C 14.148438 24.222656 13.90625 24.195313 13.644531 24.191406 Z M 38.863281 25.183594 C 38.84375 25.183594 38.832031 25.1875 38.832031 25.1875 C 38.832031 25.1875 38.847656 25.1875 38.863281 25.1875 C 38.863281 25.1875 38.863281 25.183594 38.863281 25.183594 Z M 16.898438 25.917969 C 16.898438 25.964844 16.867188 26 16.824219 26 C 16.867188 26 16.898438 25.964844 16.898438 25.917969 Z"/></svg>