<svg width="992" height="1403" xmlns="http://www.w3.org/2000/svg" xmlns:xlink="http://www.w3.org/1999/xlink" overflow="hidden"><defs><clipPath id="clip0"><rect x="0" y="0" width="992" height="1403"/></clipPath></defs><g clip-path="url(#clip0)"><rect x="0" y="0" width="992" height="1403.19" fill="#FFFAF2"/><text fill="#56246B" font-weight="700" font-size="201.602" transform="matrix(1 0 0 0.999427 33.8787 437)">DU</text><g><g><g><path d="M409.998 211.612C409.998 163.509 392.784 119.355 364.2 84.9724 364.018 84.6786 363.822 84.3906 363.595 84.1173 363.34 83.8106 363.061 83.5375 362.77 83.2825 326.352 40.4512 272.106 13.2257 211.612 13.2257 151.118 13.2257 96.8707 40.4515 60.4529 83.2832 60.1626 83.5381 59.8835 83.8109 59.6287 84.1173 59.4016 84.3906 59.2057 84.6786 59.024 84.9724 30.4397 119.355 13.2257 163.509 13.2257 211.612 13.2257 262.97 32.8443 309.831 64.9786 345.099 65.0464 345.197 65.1078 345.299 65.181 345.395 65.5685 345.906 66.0138 346.345 66.4939 346.726 102.736 385.626 154.377 409.998 211.612 409.998 268.839 409.998 320.474 385.632 356.715 346.742 357.202 346.358 357.651 345.912 358.043 345.395 358.116 345.299 358.177 345.197 358.245 345.099 390.379 309.831 409.998 262.97 409.998 211.612ZM330.412 318.36C343.797 288.831 351.373 254.763 352.3 219.063L394.931 219.063C393.221 261.637 376.943 300.521 350.948 330.853 344.49 326.344 337.629 322.17 330.412 318.36ZM72.2756 330.853C46.2805 300.521 30.0024 261.637 28.2927 219.063L70.9236 219.063C71.8506 254.763 79.4273 288.831 92.8114 318.36 85.5948 322.17 78.7337 326.344 72.2756 330.853ZM66.5848 99.3498C73.5484 104.636 81.0261 109.498 88.9451 113.912 77.9665 141.265 71.7573 172.053 70.9236 204.16L28.2927 204.16C29.8739 164.785 43.917 128.566 66.5848 99.3498ZM394.931 204.16 352.3 204.16C351.466 172.053 345.257 141.265 334.279 113.912 342.198 109.498 349.675 104.636 356.639 99.3498 379.307 128.566 393.35 164.785 394.931 204.16ZM337.392 204.16 276.526 204.16C276.261 180.884 274.761 158.308 272.123 137.272 289.388 133.366 305.812 127.802 320.944 120.726 330.681 145.51 336.558 173.905 337.392 204.16ZM219.063 392.469 219.063 305.415C230.761 305.745 242.321 306.845 253.592 308.678 251.25 321.559 248.424 333.578 245.142 344.474 237.762 368.976 228.261 386.19 219.063 392.469ZM178.082 344.474C174.8 333.578 171.974 321.559 169.632 308.678 180.903 306.845 192.462 305.745 204.16 305.415L204.16 392.469C194.962 386.19 185.462 368.976 178.082 344.474ZM204.16 30.7551 204.16 128.931C191.792 128.588 179.623 127.396 167.807 125.4 170.45 108.382 173.894 92.6522 178.082 78.7497 185.462 54.2474 194.962 37.0332 204.16 30.7551ZM245.142 78.7497C249.329 92.6522 252.774 108.382 255.417 125.4 243.601 127.396 231.432 128.588 219.063 128.931L219.063 30.7551C228.261 37.0332 237.762 54.2474 245.142 78.7497ZM204.16 143.839 204.16 204.16 161.602 204.16C161.86 181.862 163.275 160.269 165.754 140.153 178.256 142.248 191.111 143.495 204.16 143.839ZM204.16 219.063 204.16 290.507C191.66 290.843 179.295 292.016 167.227 293.984 163.836 270.851 161.908 245.452 161.602 219.063L204.16 219.063ZM219.063 290.507 219.063 219.063 261.622 219.063C261.316 245.452 259.388 270.851 255.997 293.984 243.929 292.016 231.564 290.843 219.063 290.507ZM219.063 204.16 219.063 143.839C232.113 143.495 244.967 142.248 257.47 140.153 259.949 160.269 261.364 181.862 261.622 204.16L219.063 204.16ZM270.037 122.483C267.298 105.003 263.736 88.8103 259.412 74.4518 254.207 57.172 248.17 43.4157 241.447 33.3483 271.71 44.109 297.719 70.8519 315.012 107.074 301.097 113.621 285.969 118.8 270.037 122.483ZM181.777 33.3483C175.054 43.4157 169.017 57.172 163.812 74.4518 159.487 88.8103 155.926 105.003 153.187 122.483 137.255 118.8 122.127 113.621 108.212 107.074 125.504 70.8519 151.514 44.109 181.777 33.3483ZM151.101 137.272C148.463 158.308 146.963 180.884 146.698 204.16L85.8321 204.16C86.6657 173.905 92.5431 145.51 102.28 120.726 117.412 127.802 133.836 133.366 151.101 137.272ZM85.8321 219.063 146.698 219.063C147.009 246.394 149.027 272.751 152.585 296.792 136.296 300.392 120.7 305.458 106.227 311.866 94.1433 284.976 86.7728 253.207 85.8321 219.063ZM155.003 311.496C157.442 324.889 160.388 337.405 163.812 348.772 169.017 366.052 175.054 379.808 181.777 389.875 154.099 380.034 129.975 356.829 112.827 325.225 125.998 319.435 140.176 314.819 155.003 311.496ZM241.447 389.875C248.17 379.808 254.207 366.052 259.412 348.772 262.835 337.405 265.782 324.889 268.221 311.496 283.047 314.819 297.226 319.435 310.397 325.225 293.249 356.829 269.125 380.034 241.447 389.875ZM270.638 296.792C274.196 272.751 276.215 246.394 276.526 219.063L337.392 219.063C336.451 253.207 329.08 284.976 316.997 311.866 302.524 305.458 286.928 300.392 270.638 296.792ZM347.03 87.9383C341.149 92.3622 334.872 96.4664 328.245 100.229 323.486 90.3516 318.069 81.0103 312.009 72.3342 304.692 61.8564 296.689 52.6813 288.142 44.8718 310.566 55.2053 330.567 69.927 347.03 87.9383ZM135.082 44.8718C126.535 52.6813 118.532 61.8564 111.214 72.3342 105.155 81.0103 99.738 90.3516 94.9785 100.229 88.3515 96.4664 82.0746 92.3622 76.1937 87.9383 92.6569 69.927 112.657 55.2053 135.082 44.8718ZM82.5255 341.874C87.8734 338.237 93.5231 334.849 99.4257 331.713 103.039 338.401 106.968 344.809 111.214 350.889 118.532 361.367 126.535 370.542 135.082 378.352 115.457 369.309 97.6907 356.904 82.5255 341.874ZM312.01 350.889C316.256 344.809 320.185 338.401 323.798 331.713 329.701 334.849 335.35 338.237 340.698 341.874 325.533 356.904 307.767 369.309 288.142 378.352 296.689 370.542 304.692 361.367 312.01 350.889Z" fill="#D3D1CD" transform="matrix(1.00057 0 0 1 253.767 95.7118)"/></g></g></g><text fill="#56246B" font-family="Poppins,Poppins_MSFontService,Arial" font-weight="400" font-size="23.3111" transform="matrix(1 0 0 0.999427 108.675 1034)">Pilier 1</text><path d="M0 0 124.928 78.9546" stroke="#000000" stroke-width="2.49941" stroke-linejoin="round" stroke-miterlimit="10" fill="none" fill-rule="evenodd" transform="matrix(1.00057 0 0 -1 198.5 1029.91)"/><path d="M199.5 1028.91 323.5 1029.91" stroke="#000000" stroke-width="2.50084" stroke-linejoin="round" stroke-miterlimit="10" fill="none" fill-rule="evenodd"/><path d="M198.5 1030.91 323.5 1099.87" stroke="#000000" stroke-width="2.50084" stroke-linejoin="round" stroke-miterlimit="10" fill="none" fill-rule="evenodd"/><text fill="#56246B" font-family="Poppins,Poppins_MSFontService,Arial" font-weight="400" font-size="23.3111" transform="matrix(1 0 0 0.999427 506.264 1027)">Pilier 2</text><path d="M0 0 124.928 78.9546" stroke="#000000" stroke-width="2.49941" stroke-linejoin="round" stroke-miterlimit="10" fill="none" fill-rule="evenodd" transform="matrix(1.00057 0 0 -1 596.5 1022.91)"/><path d="M597.5 1021.91 721.5 1022.91" stroke="#000000" stroke-width="2.50084" stroke-linejoin="round" stroke-miterlimit="10" fill="none" fill-rule="evenodd"/><path d="M596.5 1024.91 721.5 1093.87" stroke="#000000" stroke-width="2.50084" stroke-linejoin="round" stroke-miterlimit="10" fill="none" fill-rule="evenodd"/><text fill="#56246B" font-weight="700" font-size="202.435" transform="matrix(1 0 0 0.999427 9.45199 273)">REFONTE</text><text fill="#56246B" font-weight="700" font-size="54.9869" transform="matrix(1 0 0 0.999427 561.11 337)">SITE INTERNET</text><text fill="#56246B" font-weight="700" font-size="54.9869" transform="matrix(1 0 0 0.999427 590.986 399)">ACTINUANCE</text><text fill="#56246B" font-family="Poppins,Poppins_MSFontService,Arial" font-weight="400" font-size="74.2324" transform="matrix(1 0 0 0.999427 60.3171 640)">GUIDE PORTEUR D’OFFRE</text><text fill="#56246B" font-family="Poppins,Poppins_MSFontService,Arial" font-weight="400" font-size="23.3111" transform="matrix(1 0 0 0.999427 108.675 743)">Nous</text><text fill="#56246B" font-family="Poppins,Poppins_MSFontService,Arial" font-weight="400" font-size="23.3111" transform="matrix(1 0 0 0.999427 184.509 743)">avons</text><text fill="#56246B" font-family="Poppins,Poppins_MSFontService,Arial" font-weight="400" font-size="23.3111" transform="matrix(1 0 0 0.999427 272.847 743)">besoin</text><text fill="#56246B" font-family="Poppins,Poppins_MSFontService,Arial" font-weight="400" font-size="23.3111" transform="matrix(1 0 0 0.999427 368.271 743)">de</text><text fill="#56246B" font-family="Poppins,Poppins_MSFontService,Arial" font-weight="400" font-size="23.3111" transform="matrix(1 0 0 0.999427 415.762 743)">vos</text><text fill="#56246B" font-family="Poppins,Poppins_MSFontService,Arial" font-weight="400" font-size="23.3111" transform="matrix(1 0 0 0.999427 473.256 743)">informations</text><text fill="#56246B" font-family="Poppins,Poppins_MSFontService,Arial" font-weight="400" font-size="23.3111" transform="matrix(1 0 0 0.999427 639.12 743)">pour</text><text fill="#56246B" font-family="Poppins,Poppins_MSFontService,Arial" font-weight="400" font-size="23.3111" transform="matrix(1 0 0 0.999427 710.994 743)">remplir</text><text fill="#56246B" font-family="Poppins,Poppins_MSFontService,Arial" font-weight="400" font-size="23.3111" transform="matrix(1 0 0 0.999427 811.62 743)">les</text><text fill="#56246B" font-family="Poppins,Poppins_MSFontService,Arial" font-weight="400" font-size="23.3111" transform="matrix(1 0 0 0.999427 108.675 776)">nouvelles</text><text fill="#56246B" font-family="Poppins,Poppins_MSFontService,Arial" font-weight="400" font-size="23.3111" transform="matrix(1 0 0 0.999427 232.708 776)">pages</text><text fill="#56246B" font-family="Poppins,Poppins_MSFontService,Arial" font-weight="400" font-size="23.3111" transform="matrix(1 0 0 0.999427 320.054 776)">du</text><text fill="#56246B" font-family="Poppins,Poppins_MSFontService,Arial" font-weight="400" font-size="23.3111" transform="matrix(1 0 0 0.999427 364.261 776)">site</text><text fill="#56246B" font-family="Poppins,Poppins_MSFontService,Arial" font-weight="400" font-size="23.3111" transform="matrix(1 0 0 0.999427 418.471 776)">d’Actinuance</text><text fill="#56246B" font-family="Poppins,Poppins_MSFontService,Arial" font-weight="400" font-size="23.3111" transform="matrix(1 0 0 0.999427 573.106 776)">.</text><text fill="#56246B" font-family="Poppins,Poppins_MSFontService,Arial" font-weight="400" font-size="23.3111" transform="matrix(1 0 0 0.999427 591.471 776)">Dans</text><text fill="#56246B" font-family="Poppins,Poppins_MSFontService,Arial" font-weight="400" font-size="23.3111" transform="matrix(1 0 0 0.999427 664.228 776)">ce</text><text fill="#56246B" font-family="Poppins,Poppins_MSFontService,Arial" font-weight="400" font-size="23.3111" transform="matrix(1 0 0 0.999427 706.143 776)">Guide</text><text fill="#56246B" font-family="Poppins,Poppins_MSFontService,Arial" font-weight="400" font-size="23.3111" transform="matrix(1 0 0 0.999427 788.695 776)">vous</text><text fill="#56246B" font-family="Poppins,Poppins_MSFontService,Arial" font-weight="400" font-size="23.3111" transform="matrix(1 0 0 0.999427 108.675 810)">trouverez</text><text fill="#56246B" font-family="Poppins,Poppins_MSFontService,Arial" font-weight="400" font-size="23.3111" transform="matrix(1 0 0 0.999427 223.889 810)">des</text><text fill="#56246B" font-family="Poppins,Poppins_MSFontService,Arial" font-weight="400" font-size="23.3111" transform="matrix(1 0 0 0.999427 272.839 810)">Templates</text><text fill="#56246B" font-family="Poppins,Poppins_MSFontService,Arial" font-weight="400" font-size="23.3111" transform="matrix(1 0 0 0.999427 403.066 810)">avec</text><text fill="#56246B" font-family="Poppins,Poppins_MSFontService,Arial" font-weight="400" font-size="23.3111" transform="matrix(1 0 0 0.999427 467.229 810)">des</text><text fill="#56246B" font-family="Poppins,Poppins_MSFontService,Arial" font-weight="400" font-size="23.3111" transform="matrix(1 0 0 0.999427 516.179 810)">informations</text><text fill="#56246B" font-family="Poppins,Poppins_MSFontService,Arial" font-weight="400" font-size="23.3111" transform="matrix(1 0 0 0.999427 671.414 810)">à</text><text fill="#56246B" font-family="Poppins,Poppins_MSFontService,Arial" font-weight="400" font-size="23.3111" transform="matrix(1 0 0 0.999427 693.897 810)">Remplir</text><text fill="#56246B" font-family="Poppins,Poppins_MSFontService,Arial" font-weight="400" font-size="23.3111" transform="matrix(1 0 0 0.999427 789.32 810)">pour</text><text fill="#56246B" font-family="Poppins,Poppins_MSFontService,Arial" font-weight="400" font-size="23.3111" transform="matrix(1 0 0 0.999427 108.675 843)">les</text><text fill="#56246B" font-family="Poppins,Poppins_MSFontService,Arial" font-weight="400" font-size="23.3111" transform="matrix(1 0 0 0.999427 147.23 843)">Piliers</text><text fill="#56246B" font-family="Poppins,Poppins_MSFontService,Arial" font-weight="400" font-size="23.3111" transform="matrix(1 0 0 0.999427 219.754 843)">mais</text><text fill="#56246B" font-family="Poppins,Poppins_MSFontService,Arial" font-weight="400" font-size="23.3111" transform="matrix(1 0 0 0.999427 283.734 843)">aussi</text><text fill="#56246B" font-family="Poppins,Poppins_MSFontService,Arial" font-weight="400" font-size="23.3111" transform="matrix(1 0 0 0.999427 350.84 843)">pour</text><text fill="#56246B" font-family="Poppins,Poppins_MSFontService,Arial" font-weight="400" font-size="23.3111" transform="matrix(1 0 0 0.999427 411.694 843)">chaque</text><text fill="#56246B" font-family="Poppins,Poppins_MSFontService,Arial" font-weight="400" font-size="23.3111" transform="matrix(1 0 0 0.999427 508.184 843)">offre</text><text fill="#56246B" font-family="Poppins,Poppins_MSFontService,Arial" font-weight="400" font-size="23.3111" transform="matrix(1 0 0 0.999427 561.744 843)">.</text><text fill="#56246B" font-family="Poppins,Poppins_MSFontService,Arial" font-weight="400" font-size="23.3111" transform="matrix(1 0 0 0.999427 108.675 876)">Le site se decomposera comme ci</text><text fill="#56246B" font-family="Poppins,Poppins_MSFontService,Arial" font-weight="400" font-size="23.3111" transform="matrix(1 0 0 0.999427 508.393 876)">-</text><text fill="#56246B" font-family="Poppins,Poppins_MSFontService,Arial" font-weight="400" font-size="23.3111" transform="matrix(1 0 0 0.999427 521.314 876)">contre :</text><text fill="#56246B" font-family="Poppins,Poppins_MSFontService,Arial" font-weight="400" font-size="23.3111" transform="matrix(1 0 0 0.999427 334.536 954)">Offre 1</text><text fill="#56246B" font-family="Poppins,Poppins_MSFontService,Arial" font-weight="400" font-size="23.3111" transform="matrix(1 0 0 0.999427 334.536 1035)">Offre 2</text><text fill="#56246B" font-family="Poppins,Poppins_MSFontService,Arial" font-weight="400" font-size="23.3111" transform="matrix(1 0 0 0.999427 334.536 1104)">Offre 3</text><text fill="#56246B" font-family="Poppins,Poppins_MSFontService,Arial" font-weight="400" font-size="23.3111" transform="matrix(1 0 0 0.999427 732.124 948)">Offre 1</text><text fill="#56246B" font-family="Poppins,Poppins_MSFontService,Arial" font-weight="400" font-size="23.3111" transform="matrix(1 0 0 0.999427 732.124 1028)">Offre 2</text><text fill="#56246B" font-family="Poppins,Poppins_MSFontService,Arial" font-weight="400" font-size="23.3111" transform="matrix(1 0 0 0.999427 732.124 1097)">Offre 3</text><text fill="#56246B" font-family="Poppins,Poppins_MSFontService,Arial" font-weight="400" font-size="23.3111" transform="matrix(1 0 0 0.999427 108.675 1182)">Si</text><text fill="#56246B" font-family="Poppins,Poppins_MSFontService,Arial" font-weight="400" font-size="23.3111" transform="matrix(1 0 0 0.999427 137.593 1182)">vous</text><text fill="#56246B" font-family="Poppins,Poppins_MSFontService,Arial" font-weight="400" font-size="23.3111" transform="matrix(1 0 0 0.999427 202.148 1182)">être</text><text fill="#56246B" font-family="Poppins,Poppins_MSFontService,Arial" font-weight="400" font-size="23.3111" transform="matrix(1 0 0 0.999427 257.533 1182)">porteur</text><text fill="#56246B" font-family="Poppins,Poppins_MSFontService,Arial" font-weight="400" font-size="23.3111" transform="matrix(1 0 0 0.999427 353.141 1182)">d’offre</text><text fill="#56246B" font-family="Poppins,Poppins_MSFontService,Arial" font-weight="400" font-size="23.3111" transform="matrix(1 0 0 0.999427 437.077 1182)">envoyez</text><text fill="#56246B" font-family="Poppins,Poppins_MSFontService,Arial" font-weight="400" font-size="23.3111" transform="matrix(1 0 0 0.999427 542.071 1182)">nous</text><text fill="#56246B" font-family="Poppins,Poppins_MSFontService,Arial" font-weight="400" font-size="23.3111" transform="matrix(1 0 0 0.999427 608.51 1182)">les</text><text fill="#56246B" font-family="Poppins,Poppins_MSFontService,Arial" font-weight="400" font-size="23.3111" transform="matrix(1 0 0 0.999427 650.149 1182)">informations</text><text fill="#56246B" font-family="Poppins,Poppins_MSFontService,Arial" font-weight="400" font-size="23.3111" transform="matrix(1 0 0 0.999427 808.077 1182)">sur</text><text fill="#56246B" font-family="Poppins,Poppins_MSFontService,Arial" font-weight="400" font-size="23.3111" transform="matrix(1 0 0 0.999427 108.675 1215)">votre</text><text fill="#56246B" font-family="Poppins,Poppins_MSFontService,Arial" font-weight="400" font-size="23.3111" transform="matrix(1 0 0 0.999427 186.601 1215)">offre</text><text fill="#56246B" font-family="Poppins,Poppins_MSFontService,Arial" font-weight="400" font-size="23.3111" transform="matrix(1 0 0 0.999427 240.161 1215)">.</text><text fill="#56246B" font-family="Poppins,Poppins_MSFontService,Arial" font-weight="400" font-size="23.3111" transform="matrix(1 0 0 0.999427 263.277 1215)">Si</text><text fill="#56246B" font-family="Poppins,Poppins_MSFontService,Arial" font-weight="400" font-size="23.3111" transform="matrix(1 0 0 0.999427 300.973 1215)">vous</text><text fill="#56246B" font-family="Poppins,Poppins_MSFontService,Arial" font-weight="400" font-size="23.3111" transform="matrix(1 0 0 0.999427 374.306 1215)">vous</text><text fill="#56246B" font-family="Poppins,Poppins_MSFontService,Arial" font-weight="400" font-size="23.3111" transform="matrix(1 0 0 0.999427 447.639 1215)">êtes</text><text fill="#56246B" font-family="Poppins,Poppins_MSFontService,Arial" font-weight="400" font-size="23.3111" transform="matrix(1 0 0 0.999427 515.137 1215)">associé</text><text fill="#56246B" font-family="Poppins,Poppins_MSFontService,Arial" font-weight="400" font-size="23.3111" transform="matrix(1 0 0 0.999427 622.648 1215)">envoyez</text><text fill="#56246B" font-family="Poppins,Poppins_MSFontService,Arial" font-weight="400" font-size="23.3111" transform="matrix(1 0 0 0.999427 736.411 1215)">nous</text><text fill="#56246B" font-family="Poppins,Poppins_MSFontService,Arial" font-weight="400" font-size="23.3111" transform="matrix(1 0 0 0.999427 811.62 1215)">les</text><text fill="#56246B" font-family="Poppins,Poppins_MSFontService,Arial" font-weight="400" font-size="23.3111" transform="matrix(1 0 0 0.999427 108.675 1249)">informations</text><text fill="#56246B" font-family="Poppins,Poppins_MSFontService,Arial" font-weight="400" font-size="23.3111" transform="matrix(1 0 0 0.999427 263.519 1249)">concernant</text><text fill="#56246B" font-family="Poppins,Poppins_MSFontService,Arial" font-weight="400" font-size="23.3111" transform="matrix(1 0 0 0.999427 405.65 1249)">votre</text><text fill="#56246B" font-family="Poppins,Poppins_MSFontService,Arial" font-weight="400" font-size="23.3111" transform="matrix(1 0 0 0.999427 471.714 1249)">pilier</text><text fill="#56246B" font-family="Poppins,Poppins_MSFontService,Arial" font-weight="400" font-size="23.3111" transform="matrix(1 0 0 0.999427 528.191 1249)">.</text></g></svg>