<svg width="992" height="1403" xmlns="http://www.w3.org/2000/svg" xmlns:xlink="http://www.w3.org/1999/xlink" overflow="hidden"><defs><clipPath id="clip0"><rect x="0" y="0" width="992" height="1403"/></clipPath></defs><g clip-path="url(#clip0)"><rect x="0" y="0" width="992" height="1403.19" fill="#FFFAF2"/><text fill="#56246B" font-weight="700" font-size="63.8182" transform="matrix(1 0 0 0.999427 220.224 109)">EMPLATE</text><g><g><g><path d="M290.747 185.311C240.913 185.311 200.513 192.635 200.513 201.668L200.513 215.943C200.513 219.619 207.195 223.009 218.476 225.743 217.08 224.757 216.334 223.727 216.334 222.669 216.334 215.563 249.65 209.806 290.747 209.806 331.845 209.806 365.162 215.563 365.162 222.669 365.162 223.727 364.414 224.757 363.018 225.743 374.3 223.009 380.981 219.619 380.981 215.943L380.981 201.668C380.981 192.635 340.581 185.311 290.747 185.311ZM290.747 220.413C253.893 220.413 224.016 225.827 224.016 232.51L224.016 237.524C224.419 237.293 224.859 237.064 225.333 236.84 230.312 234.467 236.058 238.174 236.058 243.689L236.058 353.564 242.129 353.564 242.129 237.843C242.129 234.572 244.529 231.798 247.767 231.342 247.818 231.333 247.869 231.327 247.92 231.319 252.814 230.632 257.191 234.421 257.191 239.363L257.191 375.021 265.734 375.021 265.734 237.168C265.734 232.836 269.13 229.254 273.456 229.053 273.511 229.051 273.567 229.048 273.622 229.045 278.26 228.835 282.145 232.516 282.145 237.16L282.145 396.184 300.13 396.184 300.13 237.2C300.13 232.563 304.012 228.861 308.643 229.083 308.698 229.086 308.753 229.088 308.809 229.092 313.138 229.301 316.542 232.872 316.542 237.209L316.542 375.021 325.085 375.021 325.085 239.474C325.085 234.52 329.484 230.725 334.389 231.435 334.438 231.441 334.488 231.45 334.537 231.455 337.761 231.927 340.145 234.694 340.145 237.954L340.145 353.564 346.216 353.564 346.216 244.099C346.216 238.357 352.408 234.65 357.405 237.483L357.479 237.524 357.479 232.51C357.479 225.827 327.603 220.413 290.747 220.413" fill="#D3D1CD" transform="matrix(1.00205 0 0 1 -126.83 -166.333)"/></g></g></g><path d="M122.5 263.349 893.5 263.349 893.5 452.24 122.5 452.24Z" stroke="#000000" stroke-width="1.25042" stroke-linecap="square" stroke-miterlimit="8" fill-rule="evenodd" fill-opacity="0"/><g><g><g><path d="M26.3041 22.6112 25.5502 8.76112 24.4052 8.76112 23.5675 8.76112 22.4225 8.76112 21.6686 22.6112 21.3616 22.6112 21.3616 11.8047 16.6426 15.6582 16.6426 11.8047 11.9237 15.6582 11.9237 11.8047 7.20432 15.6582 7.20432 22.6112 5.25647 22.6112 5.25647 24.7473 28.2517 24.7473 28.2517 22.6112C28.2517 22.6112 26.3041 22.6112 26.3041 22.6112ZM10.7227 20.5169 9.2356 20.5169 9.2356 18.0245 10.7227 18.0245 10.7227 20.5169ZM13.7385 20.5169 12.2514 20.5169 12.2514 18.0245 13.7385 18.0245 13.7385 20.5169ZM16.7542 20.5169 15.2671 20.5169 15.2671 18.0245 16.7542 18.0245 16.7542 20.5169Z" transform="matrix(1.04408 0 0 1 149.507 668.869)"/></g></g></g><g><g><g><path d="M54.7961 28.3113 52.0335 28.3113C51.5432 16.4277 42.0215 6.906 30.1379 6.41571L30.1379 3.65307C30.1379 3.14869 29.729 2.73981 29.2246 2.73981 28.7202 2.73981 28.3113 3.14869 28.3113 3.65307L28.3113 6.41571C16.4277 6.906 6.906 16.4277 6.41571 28.3113L3.65307 28.3113C3.14869 28.3113 2.73981 28.7202 2.73981 29.2246 2.73981 29.729 3.14869 30.1379 3.65307 30.1379L6.41571 30.1379C6.906 42.0215 16.4277 51.5432 28.3113 52.0335L28.3113 54.7961C28.3113 55.3005 28.7202 55.7094 29.2246 55.7094 29.729 55.7094 30.1379 55.3005 30.1379 54.7961L30.1379 52.0335C42.0215 51.5432 51.5432 42.0215 52.0335 30.1379L54.7961 30.1379C55.3005 30.1379 55.7094 29.729 55.7094 29.2246 55.7094 28.7202 55.3005 28.3113 54.7961 28.3113ZM50.2069 28.3113 47.4434 28.3113C46.9673 18.958 39.4912 11.4818 30.1379 11.0058L30.1379 8.24225C41.0138 8.72874 49.7204 17.4354 50.2069 28.3113ZM40.1838 30.1379 45.6168 30.1379C45.1448 38.4833 38.4833 45.1447 30.1379 45.6168L30.1379 40.1838C30.1379 39.6794 29.729 39.2705 29.2246 39.2705 28.7202 39.2705 28.3113 39.6794 28.3113 40.1838L28.3113 45.6168C19.9659 45.1448 13.3044 38.4833 12.8323 30.1379L18.2654 30.1379C18.7698 30.1379 19.1786 29.729 19.1786 29.2246 19.1786 28.7202 18.7698 28.3113 18.2654 28.3113L12.8323 28.3113C13.3044 19.9659 19.9659 13.3044 28.3113 12.8323L28.3113 18.2654C28.3113 18.7698 28.7202 19.1786 29.2246 19.1786 29.729 19.1786 30.1379 18.7698 30.1379 18.2654L30.1379 12.8323C38.4833 13.3044 45.1447 19.9659 45.6168 28.3113L40.1838 28.3113C39.6794 28.3113 39.2705 28.7202 39.2705 29.2246 39.2705 29.729 39.6794 30.1379 40.1838 30.1379ZM28.3113 8.24225 28.3113 11.0058C18.958 11.4818 11.4818 18.958 11.0058 28.3113L8.24225 28.3113C8.72874 17.4354 17.4354 8.72874 28.3113 8.24225ZM8.24225 30.1379 11.0058 30.1379C11.4818 39.4912 18.958 46.9673 28.3113 47.4434L28.3113 50.2069C17.4354 49.7204 8.72874 41.0138 8.24225 30.1379ZM30.1379 50.2069 30.1379 47.4434C39.4912 46.9673 46.9673 39.4912 47.4434 30.1379L50.2069 30.1379C49.7204 41.0138 41.0138 49.7204 30.1379 50.2069Z" transform="matrix(1.01945 0 0 1 137.207 657.881)"/></g></g></g><text fill="#56246B" font-weight="700" font-size="63.8182" transform="matrix(1 0 0 0.999427 176.49 109)">TEMPLATE</text><text fill="#56246B" font-weight="700" font-size="77.0984" transform="matrix(1 0 0 0.999427 142.519 178)">PILIER</text><text font-family="Poppins,Poppins_MSFontService,Arial" font-weight="700" font-size="23.3111" transform="matrix(1 0 0 0.999427 140.183 294)">Définition</text><text font-family="Poppins,Poppins_MSFontService,Arial" font-weight="700" font-size="23.3111" transform="matrix(1 0 0 0.999427 260.848 294)">synthétique</text><text font-family="Poppins,Poppins_MSFontService,Arial" font-weight="700" font-size="23.3111" transform="matrix(1 0 0 0.999427 410.69 294)">du</text><text font-family="Poppins,Poppins_MSFontService,Arial" font-weight="700" font-size="23.3111" transform="matrix(1 0 0 0.999427 447.161 294)">domaine</text><text font-family="Poppins,Poppins_MSFontService,Arial" font-weight="400" font-size="23.3111" transform="matrix(1 0 0 0.999427 140.183 332)">En</text><text font-family="Poppins,Poppins_MSFontService,Arial" font-weight="400" font-size="23.3111" transform="matrix(1 0 0 0.999427 176.32 332)">3</text><text font-family="Poppins,Poppins_MSFontService,Arial" font-weight="400" font-size="23.3111" transform="matrix(1 0 0 0.999427 190.075 332)">–</text><text font-family="Poppins,Poppins_MSFontService,Arial" font-weight="400" font-size="23.3111" transform="matrix(1 0 0 0.999427 205.913 332)">4</text><text font-family="Poppins,Poppins_MSFontService,Arial" font-weight="400" font-size="23.3111" transform="matrix(1 0 0 0.999427 229.755 332)">lignes,</text><text font-family="Poppins,Poppins_MSFontService,Arial" font-weight="400" font-size="23.3111" transform="matrix(1 0 0 0.999427 312.574 332)">définir</text><text font-family="Poppins,Poppins_MSFontService,Arial" font-weight="400" font-size="23.3111" transform="matrix(1 0 0 0.999427 395.185 332)">clairement</text><text font-family="Poppins,Poppins_MSFontService,Arial" font-weight="400" font-size="23.3111" transform="matrix(1 0 0 0.999427 531.148 332)">le</text><text font-family="Poppins,Poppins_MSFontService,Arial" font-weight="400" font-size="23.3111" transform="matrix(1 0 0 0.999427 560.616 332)">périmètre</text><text font-family="Poppins,Poppins_MSFontService,Arial" font-weight="400" font-size="23.3111" transform="matrix(1 0 0 0.999427 684.699 332)">couvert</text><text font-family="Poppins,Poppins_MSFontService,Arial" font-weight="400" font-size="23.3111" transform="matrix(1 0 0 0.999427 782.941 332)">(ex</text><text font-family="Poppins,Poppins_MSFontService,Arial" font-weight="400" font-size="23.3111" transform="matrix(1 0 0 0.999427 828.456 332)">:</text><text font-family="Poppins,Poppins_MSFontService,Arial" font-weight="400" font-size="23.3111" transform="matrix(1 0 0 0.999427 842.711 332)">"La</text><text font-family="Poppins,Poppins_MSFontService,Arial" font-weight="400" font-size="23.3111" transform="matrix(1 0 0 0.999427 140.183 365)">gouvernance</text><text font-family="Poppins,Poppins_MSFontService,Arial" font-weight="400" font-size="23.3111" transform="matrix(1 0 0 0.999427 303.254 365)">cybersécurité</text><text font-family="Poppins,Poppins_MSFontService,Arial" font-weight="400" font-size="23.3111" transform="matrix(1 0 0 0.999427 469.243 365)">englobe</text><text font-family="Poppins,Poppins_MSFontService,Arial" font-weight="400" font-size="23.3111" transform="matrix(1 0 0 0.999427 572.086 365)">les</text><text font-family="Poppins,Poppins_MSFontService,Arial" font-weight="400" font-size="23.3111" transform="matrix(1 0 0 0.999427 610.958 365)">processus</text><text font-family="Poppins,Poppins_MSFontService,Arial" font-weight="400" font-size="23.3111" transform="matrix(1 0 0 0.999427 736.942 365)">de</text><text font-family="Poppins,Poppins_MSFontService,Arial" font-weight="400" font-size="23.3111" transform="matrix(1 0 0 0.999427 773.729 365)">pilotage,</text><text font-family="Poppins,Poppins_MSFontService,Arial" font-weight="400" font-size="23.3111" transform="matrix(1 0 0 0.999427 140.183 399)">les</text><text font-family="Poppins,Poppins_MSFontService,Arial" font-weight="400" font-size="23.3111" transform="matrix(1 0 0 0.999427 183.598 399)">politiques</text><text font-family="Poppins,Poppins_MSFontService,Arial" font-weight="400" font-size="23.3111" transform="matrix(1 0 0 0.999427 308.915 399)">et</text><text font-family="Poppins,Poppins_MSFontService,Arial" font-weight="400" font-size="23.3111" transform="matrix(1 0 0 0.999427 342.951 399)">les</text><text font-family="Poppins,Poppins_MSFontService,Arial" font-weight="400" font-size="23.3111" transform="matrix(1 0 0 0.999427 386.366 399)">rôles</text><text font-family="Poppins,Poppins_MSFontService,Arial" font-weight="400" font-size="23.3111" transform="matrix(1 0 0 0.999427 453.538 399)">définissant</text><text font-family="Poppins,Poppins_MSFontService,Arial" font-weight="400" font-size="23.3111" transform="matrix(1 0 0 0.999427 592.818 399)">la</text><text font-family="Poppins,Poppins_MSFontService,Arial" font-weight="400" font-size="23.3111" transform="matrix(1 0 0 0.999427 625.613 399)">protection</text><text font-family="Poppins,Poppins_MSFontService,Arial" font-weight="400" font-size="23.3111" transform="matrix(1 0 0 0.999427 757.815 399)">des</text><text font-family="Poppins,Poppins_MSFontService,Arial" font-weight="400" font-size="23.3111" transform="matrix(1 0 0 0.999427 811.242 399)">actifs</text><text font-family="Poppins,Poppins_MSFontService,Arial" font-weight="400" font-size="23.3111" transform="matrix(1 0 0 0.999427 140.183 432)">numériques</text><text font-family="Poppins,Poppins_MSFontService,Arial" font-weight="400" font-size="23.3111" transform="matrix(1 0 0 0.999427 280.438 432)">...</text><text font-family="Poppins,Poppins_MSFontService,Arial" font-weight="400" font-size="23.3111" transform="matrix(1 0 0 0.999427 295.443 432)">")</text><text font-family="Poppins,Poppins_MSFontService,Arial" font-weight="400" font-size="23.3111" transform="matrix(1 0 0 0.999427 312.949 432)">.</text><text font-family="Poppins,Poppins_MSFontService,Arial" font-weight="400" font-size="23.3111" transform="matrix(1 0 0 0.999427 324.203 432)">On</text><text font-family="Poppins,Poppins_MSFontService,Arial" font-weight="400" font-size="23.3111" transform="matrix(1 0 0 0.999427 363.8 432)">synthétise</text><text font-family="Poppins,Poppins_MSFontService,Arial" font-weight="400" font-size="23.3111" transform="matrix(1 0 0 0.999427 489.05 432)">du</text><text font-family="Poppins,Poppins_MSFontService,Arial" font-weight="400" font-size="23.3111" transform="matrix(1 0 0 0.999427 526.146 432)">domaine</text><text font-family="Poppins,Poppins_MSFontService,Arial" font-weight="700" font-size="23.3111" transform="matrix(1 0 0 0.999427 140.183 516)">Contexte</text><text font-family="Poppins,Poppins_MSFontService,Arial" font-weight="700" font-size="23.3111" transform="matrix(1 0 0 0.999427 254.596 516)">actuel</text><text font-family="Poppins,Poppins_MSFontService,Arial" font-weight="700" font-size="23.3111" transform="matrix(1 0 0 0.999427 335.874 516)">&amp;</text><text font-family="Poppins,Poppins_MSFontService,Arial" font-weight="700" font-size="23.3111" transform="matrix(1 0 0 0.999427 359.423 516)">Enjeux</text><text font-family="Poppins,Poppins_MSFontService,Arial" font-weight="400" font-size="23.3111" transform="matrix(1 0 0 0.999427 140.183 554)">Chiffres</text><text font-family="Poppins,Poppins_MSFontService,Arial" font-weight="400" font-size="23.3111" transform="matrix(1 0 0 0.999427 235.84 554)">ou</text><text font-family="Poppins,Poppins_MSFontService,Arial" font-weight="400" font-size="23.3111" transform="matrix(1 0 0 0.999427 272.102 554)">faits</text><text font-family="Poppins,Poppins_MSFontService,Arial" font-weight="400" font-size="23.3111" transform="matrix(1 0 0 0.999427 328.371 554)">qui</text><text font-family="Poppins,Poppins_MSFontService,Arial" font-weight="400" font-size="23.3111" transform="matrix(1 0 0 0.999427 371.302 554)">font</text><text font-family="Poppins,Poppins_MSFontService,Arial" font-weight="400" font-size="23.3111" transform="matrix(1 0 0 0.999427 423.82 554)">mal</text><text font-family="Poppins,Poppins_MSFontService,Arial" font-weight="400" font-size="23.3111" transform="matrix(1 0 0 0.999427 475.712 554)">pour</text><text font-family="Poppins,Poppins_MSFontService,Arial" font-weight="400" font-size="23.3111" transform="matrix(1 0 0 0.999427 536.566 554)">monter</text><text font-family="Poppins,Poppins_MSFontService,Arial" font-weight="400" font-size="23.3111" transform="matrix(1 0 0 0.999427 628.472 554)">que</text><text font-family="Poppins,Poppins_MSFontService,Arial" font-weight="400" font-size="23.3111" transform="matrix(1 0 0 0.999427 679.948 554)">c'est</text><text font-family="Poppins,Poppins_MSFontService,Arial" font-weight="400" font-size="23.3111" transform="matrix(1 0 0 0.999427 739.134 554)">important</text><text font-family="Poppins,Poppins_MSFontService,Arial" font-weight="400" font-size="23.3111" transform="matrix(1 0 0 0.999427 862.717 554)">:</text><text font-family="Poppins,Poppins_MSFontService,Arial" font-weight="700" font-size="53.3207" transform="matrix(1 0 0 0.999427 140.183 632)">80</text><text font-family="Poppins,Poppins_MSFontService,Arial" font-weight="700" font-size="53.3207" transform="matrix(1 0 0 0.999427 209.581 632)">%</text><text font-family="Poppins,Poppins_MSFontService,Arial" font-weight="400" font-size="21.5116" transform="matrix(1 0 0 0.999427 268.033 609)">des incidents clouds sont liés à des mauvaises</text><text font-family="Poppins,Poppins_MSFontService,Arial" font-weight="400" font-size="21.5116" transform="matrix(1 0 0 0.999427 268.033 634)">configurations</text><text font-family="Poppins,Poppins_MSFontService,Arial" font-weight="400" font-size="21.5116" transform="matrix(1 0 0 0.999427 268.033 678)">L’industrie est devenu la cible numéro 1 des</text><text font-family="Poppins,Poppins_MSFontService,Arial" font-weight="400" font-size="21.5116" transform="matrix(1 0 0 0.999427 268.033 703)">cybercriminels</text><g><g><g><path d="M26.3041 22.6112 25.5502 8.76112 24.4052 8.76112 23.5675 8.76112 22.4225 8.76112 21.6686 22.6112 21.3616 22.6112 21.3616 11.8047 16.6426 15.6582 16.6426 11.8047 11.9237 15.6582 11.9237 11.8047 7.20432 15.6582 7.20432 22.6112 5.25647 22.6112 5.25647 24.7473 28.2517 24.7473 28.2517 22.6112C28.2517 22.6112 26.3041 22.6112 26.3041 22.6112ZM10.7227 20.5169 9.2356 20.5169 9.2356 18.0245 10.7227 18.0245 10.7227 20.5169ZM13.7385 20.5169 12.2514 20.5169 12.2514 18.0245 13.7385 18.0245 13.7385 20.5169ZM16.7542 20.5169 15.2671 20.5169 15.2671 18.0245 16.7542 18.0245 16.7542 20.5169Z" transform="matrix(1.04408 0 0 1 202.507 668.869)"/></g></g></g><g><g><g><path d="M54.7961 28.3113 52.0335 28.3113C51.5432 16.4277 42.0215 6.906 30.1379 6.41571L30.1379 3.65307C30.1379 3.14869 29.729 2.73981 29.2246 2.73981 28.7202 2.73981 28.3113 3.14869 28.3113 3.65307L28.3113 6.41571C16.4277 6.906 6.906 16.4277 6.41571 28.3113L3.65307 28.3113C3.14869 28.3113 2.73981 28.7202 2.73981 29.2246 2.73981 29.729 3.14869 30.1379 3.65307 30.1379L6.41571 30.1379C6.906 42.0215 16.4277 51.5432 28.3113 52.0335L28.3113 54.7961C28.3113 55.3005 28.7202 55.7094 29.2246 55.7094 29.729 55.7094 30.1379 55.3005 30.1379 54.7961L30.1379 52.0335C42.0215 51.5432 51.5432 42.0215 52.0335 30.1379L54.7961 30.1379C55.3005 30.1379 55.7094 29.729 55.7094 29.2246 55.7094 28.7202 55.3005 28.3113 54.7961 28.3113ZM50.2069 28.3113 47.4434 28.3113C46.9673 18.958 39.4912 11.4818 30.1379 11.0058L30.1379 8.24225C41.0138 8.72874 49.7204 17.4354 50.2069 28.3113ZM40.1838 30.1379 45.6168 30.1379C45.1448 38.4833 38.4833 45.1447 30.1379 45.6168L30.1379 40.1838C30.1379 39.6794 29.729 39.2705 29.2246 39.2705 28.7202 39.2705 28.3113 39.6794 28.3113 40.1838L28.3113 45.6168C19.9659 45.1448 13.3044 38.4833 12.8323 30.1379L18.2654 30.1379C18.7698 30.1379 19.1786 29.729 19.1786 29.2246 19.1786 28.7202 18.7698 28.3113 18.2654 28.3113L12.8323 28.3113C13.3044 19.9659 19.9659 13.3044 28.3113 12.8323L28.3113 18.2654C28.3113 18.7698 28.7202 19.1786 29.2246 19.1786 29.729 19.1786 30.1379 18.7698 30.1379 18.2654L30.1379 12.8323C38.4833 13.3044 45.1447 19.9659 45.6168 28.3113L40.1838 28.3113C39.6794 28.3113 39.2705 28.7202 39.2705 29.2246 39.2705 29.729 39.6794 30.1379 40.1838 30.1379ZM28.3113 8.24225 28.3113 11.0058C18.958 11.4818 11.4818 18.958 11.0058 28.3113L8.24225 28.3113C8.72874 17.4354 17.4354 8.72874 28.3113 8.24225ZM8.24225 30.1379 11.0058 30.1379C11.4818 39.4912 18.958 46.9673 28.3113 47.4434L28.3113 50.2069C17.4354 49.7204 8.72874 41.0138 8.24225 30.1379ZM30.1379 50.2069 30.1379 47.4434C39.4912 46.9673 46.9673 39.4912 47.4434 30.1379L50.2069 30.1379C49.7204 41.0138 41.0138 49.7204 30.1379 50.2069Z" transform="matrix(1.00058 0 0 1 191.259 657.881)"/></g></g></g><path d="M122.5 482.223 893.5 482.223 893.5 749.07 122.5 749.07Z" stroke="#000000" stroke-width="1.25042" stroke-linecap="square" stroke-miterlimit="8" fill-rule="evenodd" fill-opacity="0"/><path d="M122.5 783.051 893.5 783.051 893.5 848.013 122.5 848.013Z" stroke="#000000" stroke-width="1.25042" stroke-linecap="square" stroke-miterlimit="8" fill-rule="evenodd" fill-opacity="0"/><text font-family="Poppins,Poppins_MSFontService,Arial" font-weight="700" font-size="23.3111" transform="matrix(1 0 0 0.999427 140.183 816)">Objectif</text><text font-family="Poppins,Poppins_MSFontService,Arial" font-weight="700" font-size="23.3111" transform="matrix(1 0 0 0.999427 239.383 816)">de</text><text font-family="Poppins,Poppins_MSFontService,Arial" font-weight="700" font-size="23.3111" transform="matrix(1 0 0 0.999427 274.603 816)">ce</text><text font-family="Poppins,Poppins_MSFontService,Arial" font-weight="700" font-size="23.3111" transform="matrix(1 0 0 0.999427 308.156 816)">pilier</text><text font-family="Poppins,Poppins_MSFontService,Arial" font-weight="700" font-size="23.3111" transform="matrix(1 0 0 0.999427 374.012 816)">pour</text><text font-family="Poppins,Poppins_MSFontService,Arial" font-weight="700" font-size="23.3111" transform="matrix(1 0 0 0.999427 435.282 816)">les</text><text font-family="Poppins,Poppins_MSFontService,Arial" font-weight="700" font-size="23.3111" transform="matrix(1 0 0 0.999427 474.462 816)">clients</text><path d="M122.5 881.994 893.5 881.994 893.5 947.956 122.5 947.956Z" stroke="#000000" stroke-width="1.25042" stroke-linecap="square" stroke-miterlimit="8" fill-rule="evenodd" fill-opacity="0"/><text font-family="Poppins,Poppins_MSFontService,Arial" font-weight="700" font-size="23.3111" transform="matrix(1 0 0 0.999427 140.183 915)">Notre</text><text font-family="Poppins,Poppins_MSFontService,Arial" font-weight="700" font-size="23.3111" transform="matrix(1 0 0 0.999427 211.248 915)">vision</text><path d="M122.5 971.942 370.5 971.942 370.5 1178.82 122.5 1178.82Z" stroke="#000000" stroke-width="1.25042" stroke-linecap="square" stroke-miterlimit="8" fill-rule="evenodd" fill-opacity="0"/><text font-family="Poppins,Poppins_MSFontService,Arial" font-weight="700" font-size="23.3111" transform="matrix(1 0 0 0.999427 142.519 1008)">Offre</text><text font-family="Poppins,Poppins_MSFontService,Arial" font-weight="700" font-size="23.3111" transform="matrix(1 0 0 0.999427 206.915 1008)">1</text><path d="M387.5 971.942 634.5 971.942 634.5 1178.82 387.5 1178.82Z" stroke="#000000" stroke-width="1.25042" stroke-linecap="square" stroke-miterlimit="8" fill-rule="evenodd" fill-opacity="0"/><path d="M646.5 971.942 893.5 971.942 893.5 1178.82 646.5 1178.82Z" stroke="#000000" stroke-width="1.25042" stroke-linecap="square" stroke-miterlimit="8" fill-rule="evenodd" fill-opacity="0"/><text font-family="Poppins,Poppins_MSFontService,Arial" font-weight="700" font-size="23.3111" transform="matrix(1 0 0 0.999427 403.378 1008)">Offre</text><text font-family="Poppins,Poppins_MSFontService,Arial" font-weight="700" font-size="23.3111" transform="matrix(1 0 0 0.999427 467.775 1008)">2</text><text font-family="Poppins,Poppins_MSFontService,Arial" font-weight="700" font-size="23.3111" transform="matrix(1 0 0 0.999427 676.773 1008)">Offre</text><text font-family="Poppins,Poppins_MSFontService,Arial" font-weight="700" font-size="23.3111" transform="matrix(1 0 0 0.999427 741.169 1008)">n</text><text font-family="Poppins,Poppins_MSFontService,Arial" font-weight="400" font-size="23.3111" transform="matrix(1 0 0 0.999427 176.385 1082)">Mini résumé</text><text font-family="Poppins,Poppins_MSFontService,Arial" font-weight="400" font-size="23.3111" transform="matrix(1 0 0 0.999427 437.091 1082)">Mini résumé</text><text font-family="Poppins,Poppins_MSFontService,Arial" font-weight="400" font-size="23.3111" transform="matrix(1 0 0 0.999427 698.872 1085)">Mini résumé</text><text font-family="Poppins,Poppins_MSFontService,Arial" font-weight="400" font-size="16.6627" transform="matrix(1 0 0 0.999427 249.015 1161)">En savoir plus</text><path d="M72.9581 18.9891 110.603 18.9891 148.248 18.9891 185.893 18.9891 185.893 19.9885 148.248 19.9885 110.603 19.9885 72.9581 19.9885Z" fill-rule="evenodd" transform="matrix(1.00057 0 0 1 176.49 1143.48)"/><text font-family="Poppins,Poppins_MSFontService,Arial" font-weight="400" font-size="16.6627" transform="matrix(1 0 0 0.999427 502.147 1161)">En savoir plus</text><path d="M72.9581 18.9891 110.603 18.9891 148.248 18.9891 185.893 18.9891 185.893 19.9885 148.248 19.9885 110.603 19.9885 72.9581 19.9885Z" fill-rule="evenodd" transform="matrix(1.00057 0 0 1 429.623 1143.48)"/><text font-family="Poppins,Poppins_MSFontService,Arial" font-weight="400" font-size="16.6627" transform="matrix(1 0 0 0.999427 766.313 1164)">En savoir plus</text><path d="M72.9581 18.9891 110.603 18.9891 148.248 18.9891 185.893 18.9891 185.893 19.9885 148.248 19.9885 110.603 19.9885 72.9581 19.9885Z" fill-rule="evenodd" transform="matrix(1.00057 0 0 1 693.789 1146.1)"/><path d="M122.5 1212.8 893.5 1212.8 893.5 1278.77 122.5 1278.77Z" stroke="#000000" stroke-width="1.25042" stroke-linecap="square" stroke-miterlimit="8" fill-rule="evenodd" fill-opacity="0"/><text font-family="Poppins,Poppins_MSFontService,Arial" font-weight="700" font-size="23.3111" transform="matrix(1 0 0 0.999427 140.183 1246)">Nous</text><text font-family="Poppins,Poppins_MSFontService,Arial" font-weight="700" font-size="23.3111" transform="matrix(1 0 0 0.999427 206.038 1246)">contacter</text></g></svg>